PathFileType	4	(X/Y/Z)	C:\Users\Caesar\Desktop\±œ“µ…Ëº∆\Lee-Son's Toolbox\Example Data\Static.trc	Maker trajectories (.TRC) by Lee-Son ToolBox
DataRate	CameraRate	NumFrames	NumMarkers	Units	OrigDataRate	OrigDataStarFrame	OrigNumFrames
100	100	9	42	mm	100	1	264
Frame#	Time	CLAV			C7			RACR			LACR			RASH			RPSH			RUA3			RLEL			RMEL			RFAsuperior			RFAradius			RFAulna			LASH			LPSH			LUA1			LLEL			LMEL			LFAsuperior			LFAradius			LFAulna			LASI			RASI			LPSI			RPSI			RTH3			RLFC			RMFC			RTB3			RLMAL			RMMAL			RCAL			RMT5			RTOE			LTH1			LLFC			LMFC			LTB1			LLMAL			LMMAL			LCAL			LMT5			LTOE		
		X1	Y1	Z1	X2	Y2	Z2	X3	Y3	Z3	X4	Y4	Z4	X5	Y5	Z5	X6	Y6	Z6	X7	Y7	Z7	X8	Y8	Z8	X9	Y9	Z9	X10	Y10	Z10	X11	Y11	Z11	X12	Y12	Z12	X13	Y13	Z13	X14	Y14	Z14	X15	Y15	Z15	X16	Y16	Z16	X17	Y17	Z17	X18	Y18	Z18	X19	Y19	Z19	X20	Y20	Z20	X21	Y21	Z21	X22	Y22	Z22	X23	Y23	Z23	X24	Y24	Z24	X25	Y25	Z25	X26	Y26	Z26	X27	Y27	Z27	X28	Y28	Z28	X29	Y29	Z29	X30	Y30	Z30	X31	Y31	Z31	X32	Y32	Z32	X33	Y33	Z33	X34	Y34	Z34	X35	Y35	Z35	X36	Y36	Z36	X37	Y37	Z37	X38	Y38	Z38	X39	Y39	Z39	X40	Y40	Z40	X41	Y41	Z41	X42	Y42	Z42

67	0.66	586.897	1419.32	205.236	566.455	1468.33	345.505	732.361	1423.04	288.762	410.975	1450.39	294.945	733.337	1380.22	230.156	716.231	1366.39	367.293	815.438	1280.03	323.596	873.786	1134.59	331.688	824.47	1108.32	285.042	902.576	1079.1	340.752	1062.71	972.017	292.15	1007.41	927.966	325.903	413.048	1412.49	233.986	400.182	1389.28	364.168	327.96	1379.73	321.28	237.547	1157.16	340.195	296.935	1144.31	290.829	202.406	1108.48	347.64	77.951	986.965	293.214	129.847	945.844	331.182	420.937	966.295	195.787	694.587	962.793	199.84	519.253	989.215	367.328	611.964	983.027	370.796	761.062	770.314	240.629	762.735	506.843	279.402	661.527	491.224	289.731	806.285	394.476	333.916	784.131	93.158	349.93	696.899	102.65	311.146	734.432	44.6427	411.464	825.154	27.2416	236.481	757.79	38.5553	154.864	357.136	678.889	263.178	371.088	515.542	276.576	471.334	492.636	275.274	342.165	231.404	350.114	352.531	103.045	349.043	436.774	113.51	312.191	407.479	41.1162	409.001	306.05	30.2318	241.174	364.919	40.0328	154.661
68	0.67	586.931	1419.32	205.092	566.491	1468.34	345.365	732.401	1423.05	288.602	411.011	1450.39	294.811	733.373	1380.23	229.998	716.283	1366.41	367.137	815.488	1280.05	323.434	873.847	1134.61	331.537	824.526	1108.33	284.901	902.642	1079.13	340.603	1062.78	972.051	291.985	1007.49	928	325.755	413.083	1412.49	233.853	400.223	1389.29	364.04	328.003	1379.72	321.152	237.596	1157.17	340.109	296.985	1144.3	290.743	202.455	1108.48	347.562	78.005	986.955	293.152	129.899	945.843	331.135	420.981	966.273	195.711	694.63	962.776	199.769	519.293	989.246	367.246	612.005	983.061	370.719	761.1	770.309	240.6	762.765	506.842	279.397	661.558	491.231	289.737	806.311	394.474	333.915	784.133	93.158	349.931	696.901	102.654	311.146	734.432	44.6431	411.465	825.156	27.2414	236.482	757.791	38.5536	154.863	357.165	678.89	263.159	371.116	515.549	276.577	471.36	492.637	275.272	342.173	231.412	350.111	352.535	103.052	349.041	436.777	113.512	312.187	407.481	41.1186	409.001	306.046	30.2313	241.172	364.915	40.029	154.659
69	0.68	586.964	1419.33	204.949	566.527	1468.35	345.225	732.441	1423.06	288.443	411.046	1450.39	294.676	733.41	1380.23	229.841	716.335	1366.43	366.981	815.537	1280.07	323.274	873.907	1134.63	331.388	824.58	1108.34	284.76	902.707	1079.15	340.454	1062.85	972.085	291.822	1007.57	928.034	325.607	413.117	1412.48	233.72	400.263	1389.29	363.913	328.045	1379.72	321.025	237.645	1157.17	340.022	297.035	1144.3	290.658	202.504	1108.49	347.484	78.0585	986.945	293.09	129.949	945.843	331.088	421.025	966.252	195.635	694.672	962.76	199.697	519.333	989.276	367.165	612.045	983.095	370.642	761.138	770.305	240.57	762.794	506.841	279.393	661.587	491.237	289.743	806.337	394.471	333.913	784.136	93.1581	349.932	696.903	102.658	311.146	734.433	44.6435	411.465	825.157	27.2412	236.482	757.792	38.5519	154.863	357.194	678.89	263.14	371.145	515.556	276.577	471.387	492.637	275.268	342.18	231.42	350.107	352.54	103.059	349.038	436.781	113.515	312.184	407.483	41.121	409.001	306.043	30.2308	241.17	364.912	40.0253	154.656
70	0.69	586.997	1419.33	204.806	566.563	1468.35	345.085	732.48	1423.07	288.284	411.082	1450.39	294.542	733.446	1380.24	229.685	716.386	1366.44	366.826	815.586	1280.09	323.113	873.966	1134.66	331.238	824.635	1108.36	284.62	902.772	1079.18	340.306	1062.91	972.118	291.659	1007.65	928.067	325.46	413.15	1412.48	233.587	400.303	1389.3	363.785	328.087	1379.72	320.898	237.694	1157.18	339.936	297.084	1144.3	290.572	202.552	1108.49	347.407	78.1115	986.935	293.028	130	945.842	331.042	421.069	966.231	195.559	694.714	962.744	199.626	519.373	989.306	367.083	612.084	983.128	370.565	761.176	770.3	240.54	762.823	506.839	279.388	661.617	491.243	289.748	806.363	394.469	333.912	784.138	93.1582	349.934	696.906	102.662	311.145	734.434	44.6439	411.466	825.159	27.241	236.482	757.793	38.5502	154.862	357.223	678.89	263.121	371.173	515.563	276.577	471.413	492.638	275.265	342.187	231.428	350.104	352.544	103.066	349.036	436.784	113.517	312.18	407.485	41.1233	409	306.04	30.2303	241.168	364.908	40.0216	154.653
71	0.7	587.029	1419.33	204.663	566.599	1468.36	344.945	732.52	1423.08	288.125	411.117	1450.39	294.409	733.482	1380.25	229.528	716.437	1366.46	366.67	815.635	1280.1	322.954	874.025	1134.68	331.09	824.689	1108.37	284.48	902.836	1079.2	340.158	1062.98	972.151	291.497	1007.72	928.1	325.313	413.184	1412.48	233.455	400.343	1389.3	363.658	328.128	1379.71	320.771	237.742	1157.18	339.849	297.132	1144.3	290.487	202.6	1108.5	347.329	78.164	986.926	292.967	130.049	945.841	330.995	421.112	966.209	195.483	694.755	962.727	199.554	519.412	989.336	367.001	612.123	983.161	370.489	761.213	770.295	240.511	762.852	506.838	279.383	661.646	491.25	289.754	806.388	394.467	333.91	784.14	93.1584	349.935	696.908	102.666	311.145	734.435	44.6443	411.467	825.161	27.2408	236.482	757.794	38.5484	154.862	357.251	678.891	263.102	371.201	515.569	276.577	471.439	492.638	275.262	342.194	231.436	350.1	352.549	103.073	349.034	436.787	113.52	312.177	407.487	41.1257	409	306.037	30.2299	241.166	364.905	40.0179	154.65
72	0.71	587.062	1419.34	204.52	566.635	1468.36	344.806	732.558	1423.09	287.967	411.151	1450.38	294.275	733.517	1380.26	229.373	716.488	1366.47	366.516	815.683	1280.12	322.794	874.083	1134.7	330.941	824.742	1108.39	284.34	902.9	1079.23	340.011	1063.04	972.184	291.335	1007.8	928.132	325.166	413.217	1412.48	233.322	400.383	1389.31	363.531	328.169	1379.71	320.645	237.79	1157.18	339.763	297.18	1144.29	290.401	202.648	1108.5	347.251	78.216	986.916	292.905	130.099	945.84	330.948	421.155	966.188	195.407	694.796	962.711	199.483	519.451	989.366	366.92	612.162	983.194	370.412	761.249	770.291	240.481	762.881	506.837	279.378	661.675	491.256	289.759	806.413	394.464	333.908	784.142	93.1585	349.936	696.91	102.669	311.145	734.435	44.6447	411.467	825.162	27.2406	236.483	757.796	38.5467	154.861	357.279	678.891	263.082	371.228	515.576	276.577	471.465	492.638	275.258	342.201	231.444	350.097	352.553	103.08	349.032	436.791	113.522	312.173	407.489	41.1281	408.999	306.035	30.2294	241.164	364.901	40.0142	154.648
73	0.72	587.094	1419.34	204.378	566.67	1468.37	344.667	732.597	1423.1	287.81	411.186	1450.38	294.143	733.552	1380.26	229.217	716.538	1366.49	366.361	815.731	1280.14	322.635	874.141	1134.72	330.793	824.795	1108.4	284.2	902.963	1079.25	339.864	1063.11	972.215	291.173	1007.87	928.164	325.02	413.25	1412.48	233.191	400.423	1389.32	363.405	328.21	1379.71	320.519	237.838	1157.19	339.677	297.228	1144.29	290.316	202.695	1108.51	347.174	78.2676	986.906	292.844	130.148	945.84	330.901	421.197	966.167	195.331	694.837	962.694	199.411	519.49	989.395	366.839	612.201	983.227	370.336	761.285	770.286	240.45	762.909	506.836	279.372	661.704	491.261	289.764	806.438	394.462	333.906	784.144	93.1587	349.938	696.912	102.673	311.145	734.436	44.6451	411.468	825.164	27.2404	236.483	757.797	38.545	154.861	357.307	678.891	263.062	371.256	515.582	276.576	471.49	492.639	275.254	342.208	231.452	350.093	352.557	103.087	349.03	436.794	113.525	312.17	407.491	41.1305	408.999	306.032	30.2289	241.162	364.898	40.0105	154.645
74	0.73	587.125	1419.34	204.236	566.706	1468.37	344.529	732.635	1423.11	287.653	411.22	1450.38	294.01	733.587	1380.27	229.062	716.588	1366.5	366.207	815.778	1280.15	322.477	874.198	1134.74	330.645	824.847	1108.41	284.061	903.026	1079.28	339.718	1063.17	972.247	291.013	1007.95	928.195	324.874	413.283	1412.48	233.059	400.462	1389.32	363.278	328.251	1379.7	320.393	237.885	1157.19	339.591	297.276	1144.29	290.231	202.742	1108.51	347.096	78.3187	986.897	292.782	130.196	945.839	330.854	421.239	966.146	195.255	694.877	962.678	199.34	519.528	989.425	366.757	612.238	983.259	370.259	761.321	770.281	240.42	762.937	506.835	279.367	661.732	491.267	289.769	806.463	394.46	333.904	784.146	93.1589	349.939	696.914	102.677	311.145	734.437	44.6456	411.468	825.165	27.2402	236.483	757.798	38.5432	154.86	357.335	678.891	263.042	371.283	515.588	276.575	471.515	492.639	275.249	342.215	231.46	350.089	352.562	103.094	349.027	436.797	113.527	312.166	407.493	41.1329	408.998	306.029	30.2285	241.16	364.895	40.0069	154.642
75	0.74	587.157	1419.35	204.094	566.741	1468.38	344.391	732.673	1423.12	287.496	411.255	1450.38	293.878	733.622	1380.28	228.907	716.637	1366.51	366.054	815.825	1280.17	322.319	874.255	1134.76	330.498	824.899	1108.42	283.922	903.088	1079.3	339.572	1063.23	972.278	290.852	1008.02	928.226	324.729	413.315	1412.48	232.928	400.501	1389.33	363.152	328.291	1379.7	320.267	237.932	1157.2	339.505	297.322	1144.29	290.146	202.788	1108.52	347.019	78.3693	986.888	292.721	130.244	945.839	330.807	421.28	966.126	195.179	694.916	962.662	199.268	519.565	989.454	366.676	612.276	983.291	370.183	761.357	770.276	240.39	762.964	506.833	279.361	661.76	491.273	289.773	806.487	394.458	333.902	784.147	93.1592	349.94	696.916	102.68	311.145	734.437	44.646	411.469	825.167	27.2401	236.483	757.799	38.5415	154.86	357.362	678.891	263.021	371.309	515.594	276.574	471.54	492.639	275.245	342.222	231.468	350.085	352.566	103.101	349.025	436.801	113.53	312.163	407.495	41.1353	408.998	306.026	30.228	241.158	364.892	40.0033	154.64
